<svg xmlns="http://www.w3.org/2000/svg" viewBox="0 0 84 74"><path d="M42 74h-2l11.2-40.8H36.5L49.6 2.7l.5-.2C53.1 1 56.4.1 59.7 0 73.2.1 84.1 11.1 84 24.6c-.1 4.5-1.4 8.9-3.9 12.7-2.6 3.5-5.3 6.8-8.3 9.8C44.2 74 42.7 74 42 74zm-.9-43.7h14.2L44.6 68.7c5.7-5 17.4-16.2 25-23.7 2.8-2.9 5.5-6.1 7.9-9.4 2.1-3.2 3.3-7.1 3.4-11C81.1 12.8 71.5 3.1 59.7 3c-2.7.1-5.3.7-7.8 1.9L41.1 30.3zm-4.2 41.9L12.2 47.1c-3-3.1-5.7-6.4-8.2-9.8-2.5-3.8-3.9-8.2-4-12.7C-.1 11.1 10.8.1 24.2 0c5.1 0 10.4 2.8 16.1 8.5.5.5.9 1 1.4 1.4l1.2 1.2-11.2 25h15.9L36.9 72.2zM24.2 3C12.5 3.1 2.9 12.8 3 24.6c.1 3.9 1.3 7.7 3.4 11 2.4 3.2 5.1 6.4 7.9 9.4l21.2 21.5 8.1-27.2H27.1l12.3-27.4c-.4-.4-.7-.8-1.1-1.1C33.1 5.5 28.5 3 24.2 3z"/></svg>
