<svg xmlns="http://www.w3.org/2000/svg" viewBox="0 0 86 90"><path id="icn_user" d="M0 89.53a13.48 13.48 0 0 1 .17-1.51c.09-.573.245-1.723.34-2.555a18.448 18.448 0 0 1 .644-3.812c.188-.7.378-1.47.423-1.7a12.807 12.807 0 0 1 .77-2.794.282.282 0 0 0 .06-.34.156.156 0 0 1 .05-.24 3.235 3.235 0 0 0 .48-.97c.167-.47.486-1.252.708-1.74s.478-1.06.57-1.277.232-.506.312-.647a5.284 5.284 0 0 0 .7-1.564.93.93 0 0 1 .3-.515 2.582 2.582 0 0 0 .717-.91 2.47 2.47 0 0 1 .35-.6.77.77 0 0 0 .24-.496 7.974 7.974 0 0 1 1.118-1.7c.058-.046.393-.468.743-.936a5.51 5.51 0 0 1 .78-.91.312.312 0 0 0 .14-.278 64.6 64.6 0 0 1 5.542-5.765 41.185 41.185 0 0 1 8.874-5.753 43.11 43.11 0 0 1 37.768 0A42.533 42.533 0 0 1 80.1 69.4a42.963 42.963 0 0 1 5.8 19.283L86 90H0v-.468zm40.5-47.585a21.61 21.61 0 0 1-13.5-7.3 20.587 20.587 0 0 1-2.824-4.567 1.522 1.522 0 0 0-.42-.724.278.278 0 0 1-.156-.304.862.862 0 0 0-.135-.468 13.354 13.354 0 0 1-.99-3.313 29.99 29.99 0 0 1 .007-8.568 17.218 17.218 0 0 1 1.636-4.81A20.554 20.554 0 0 1 35.3 1.44 19.244 19.244 0 0 1 43.077 0a17.65 17.65 0 0 1 4.3.38 21.063 21.063 0 0 1 6.55 38.7A22.26 22.26 0 0 1 40.5 41.946z"/></svg>
