<svg xmlns="http://www.w3.org/2000/svg" viewBox="0 0 68 59"><path d="M34.2 38.5c1 0 1.9-.4 2.6-1.1.6-.8 1-1.6 1-2.7 0-2.1-1.7-3.7-3.6-3.7-2 0-3.6 1.7-3.6 3.7 0 1 .4 1.9 1.1 2.7.5.7 1.4 1.1 2.5 1.1zm0-4.7c.5 0 .8.4.8.9 0 .2-.1.5-.3.7-.2.2-.5.3-.6.3-.2 0-.5-.1-.6-.3-.2-.2-.3-.4-.3-.7 0-.4.5-.9 1-.9zm-.1 9.4s.1 0 0 0c2.2 0 4.3-.9 5.8-2.5 1.6-1.6 2.4-3.7 2.4-6s-.8-4.4-2.4-5.9c-1.6-1.6-3.6-2.5-5.7-2.5-2.2 0-4.3.9-5.7 2.5-1.6 1.6-2.4 3.7-2.4 6s.8 4.4 2.4 5.9c1.4 1.6 3.4 2.5 5.6 2.5zm-3.8-12.4c1-1 2.4-1.6 3.8-1.6 1.5 0 2.8.6 3.8 1.6s1.6 2.5 1.6 4-.6 2.9-1.6 3.9-2.4 1.6-3.8 1.6c-1.5 0-2.8-.6-3.8-1.6s-1.6-2.5-1.6-3.9.5-2.9 1.6-4zm3.8-31.9L.1 59.4H68L34.1-1.1zM19 33.5c2.1-2.2 4.5-4 7.1-5.4 1.7-.9 3.4-1.5 5.2-1.9.9-.2 1.9-.3 2.8-.3 1 0 2.1.1 3.2.4 3.4.9 6.7 2.6 9.5 5 1.3 1 2.5 2.2 3.6 3.5v.1c-.4.4-.7.9-1.1 1.2-2.1 2.2-4.5 4-7.1 5.4-1.7.9-3.4 1.5-5.2 1.9-1.9.4-4 .4-5.8-.1-3.4-.9-6.7-2.6-9.5-5-1.3-1-2.5-2.2-3.6-3.6.2-.4.6-.9.9-1.2zm28.1-5.6c-2.8-2.1-5.9-3.6-9.3-4.5-2.3-.5-4.6-.6-7-.1-2.1.4-4.1 1.1-6 2.2-1.4.8-2.7 1.6-4 2.6L34.1 4.6l13 23.3zm-31.1 9c1.2 1.3 2.5 2.6 3.8 3.7 3.1 2.7 6.7 4.6 10.6 5.5 1.2.3 2.5.4 3.7.4 1.1 0 2.1-.1 3.2-.3 2.1-.4 4.1-1.1 6-2.2 2.9-1.5 5.6-3.6 7.8-6 .4-.4.6-.7 1-1L63 56.5H5l11-19.6z"/></svg>