<svg xmlns="http://www.w3.org/2000/svg" viewBox="0 0 109.063 64.125"><path d="M53.36 63.848h6.52a5.437 5.437 0 0 0 2.974-1.34 5.04 5.04 0 0 0 .9-2.953s-.128-9.014 3.932-10.338c4-1.31 9.14 8.71 14.588 12.563 4.118 2.915 7.25 2.275 7.25 2.275l14.563-.207s7.617-.486 4.005-6.658c-.3-.506-2.105-4.566-10.83-12.913-9.133-8.732-7.908-7.322 3.093-22.43 6.7-9.2 9.378-14.82 8.54-17.224-.8-2.293-5.725-1.69-5.725-1.69l-16.4.107a3.615 3.615 0 0 0-2.117.39 4.69 4.69 0 0 0-1.447 1.81 99.622 99.622 0 0 1-6.058 13.175c-7.3 12.778-10.22 13.453-11.414 12.658-2.777-1.85-2.083-7.428-2.083-11.39C63.65 7.3 65.475 2.134 60.1.8a27.356 27.356 0 0 0-7.653-.786c-5.85-.064-10.8.016-13.607 1.434-1.866.943-3.305 3.036-2.427 3.16 1.084.15 3.537.68 4.838 2.5 1.68 2.36 1.622 7.65 1.622 7.65s.964 14.58-2.26 16.398c-2.21 1.24-5.243-1.3-11.753-12.89a109.057 109.057 0 0 1-5.854-12.5 5 5 0 0 0-1.352-1.885 6.694 6.694 0 0 0-2.52-1.044l-15.583.1s-2.34.07-3.2 1.118C-.413 4.984.29 6.91.29 6.91s12.2 29.416 26.013 44.236c12.67 13.6 27.052 12.7 27.052 12.7z"/></svg>
